<svg version="1.1" id="Layer_1" xmlns="http://www.w3.org/2000/svg" xmlns:xlink="http://www.w3.org/1999/xlink" x="0px" y="0px"
	 width="100%" viewBox="0 0 192 192" enable-background="new 0 0 192 192" xml:space="preserve">
<path fill="#31A4CF" opacity="1.000000" stroke="none" 
	d="
M134.000000,193.000000 
	C89.362099,193.000000 45.224205,193.000000 1.043153,193.000000 
	C1.043153,129.070480 1.043153,65.140923 1.043153,1.105683 
	C64.887703,1.105683 128.775635,1.105683 192.831787,1.105683 
	C192.831787,64.999634 192.831787,128.999786 192.831787,193.000000 
	C173.474533,193.000000 153.987274,193.000000 134.000000,193.000000 
M115.892929,79.653847 
	C114.876534,80.495384 113.860130,81.336929 111.976944,82.273964 
	C106.245064,83.773041 101.029526,82.510445 96.441658,78.967346 
	C90.539276,74.409088 88.853050,68.075836 90.130753,59.344074 
	C83.781258,66.497292 76.342842,66.799255 69.126503,67.832558 
	C59.445221,69.218819 51.164558,73.332153 45.997410,81.842194 
	C43.277283,86.322105 42.107487,91.716530 39.678848,96.408791 
	C37.758545,100.118919 34.959068,103.369820 32.605183,106.861847 
	C31.702927,108.200363 30.953733,109.642052 30.134800,111.036736 
	C31.892359,111.118179 34.096191,111.904976 35.314529,111.134148 
	C37.847336,109.531670 39.857861,107.103691 43.125595,104.036430 
	C43.125595,117.194313 43.125595,129.317719 43.125595,141.602844 
	C41.104156,141.948685 38.673073,142.364609 35.385769,142.927017 
	C40.226448,145.907928 151.794281,145.619324 155.237549,142.610443 
	C153.080048,142.368027 151.553024,142.060257 150.023636,142.048035 
	C143.197021,141.993439 136.369675,142.038742 129.542694,142.016724 
	C125.375046,142.003281 121.618530,138.632187 120.595459,134.722031 
	C119.339630,129.922302 117.314568,125.312050 116.224426,120.483871 
	C114.964912,114.905533 113.643776,109.165428 113.750694,103.522110 
	C113.811844,100.294411 115.961571,96.268028 118.482407,94.199409 
	C120.383118,92.639671 124.365852,93.617104 128.532730,93.410027 
	C124.307755,88.452087 120.152328,83.575768 116.774963,78.111435 
	C117.797783,77.389336 118.820610,76.667236 119.287285,76.337769 
	C122.597992,80.130478 125.696510,83.511711 128.579468,87.067688 
	C129.695053,88.443703 130.487000,90.150963 131.141846,91.819016 
	C133.303452,97.325005 135.195648,102.939796 137.459274,108.401749 
	C139.385742,113.050186 137.430389,116.505684 132.325729,117.004570 
	C131.302521,117.104568 130.313171,117.550842 128.517899,118.062851 
	C135.948135,123.261978 139.979279,118.363716 144.314575,114.210930 
	C144.026810,118.901649 141.166641,121.658539 137.496307,122.177734 
	C134.423950,122.612320 130.505066,121.807007 127.980728,120.069382 
	C125.326729,118.242500 124.549217,114.782104 128.304108,112.186874 
	C129.079147,111.651184 129.219360,110.196976 129.652161,109.166130 
	C128.425079,109.129662 126.599304,108.565758 126.081192,109.153877 
	C124.408531,111.052513 122.426147,113.228127 121.992516,115.562515 
	C120.822678,121.860168 126.237846,127.427414 133.382751,127.957504 
	C141.277756,128.543243 148.674423,122.865837 151.191193,114.288414 
	C138.016068,107.234207 131.959320,96.637680 136.860962,86.972572 
	C137.164612,89.888275 137.381866,91.725586 137.543503,93.567764 
	C138.432251,103.697044 146.437851,111.948624 155.936874,111.948067 
	C158.350311,111.947929 160.834290,110.481773 163.118393,109.350967 
	C163.583755,109.120575 163.297241,107.371452 163.357315,106.322433 
	C162.452591,106.385452 161.496429,106.282974 160.653503,106.544899 
	C158.716568,107.146744 156.834763,107.926041 154.305237,108.865593 
	C154.806122,103.712753 155.342834,99.924973 155.512756,96.120811 
	C156.040222,84.313148 154.127167,73.098557 146.095718,63.847404 
	C137.490707,53.935581 128.343964,54.815311 121.581345,65.918251 
	C121.451942,66.130714 121.029030,66.164398 120.742493,66.280128 
	C116.707970,58.798523 112.902634,56.383156 107.445557,58.024223 
	C103.600418,59.180546 101.463387,61.873024 102.092209,65.900459 
	C102.682076,69.678375 104.980637,71.789482 109.167984,71.016006 
	C109.699295,70.917870 110.323723,71.323769 110.905006,71.496147 
	C111.015610,71.955772 111.126205,72.415390 111.236801,72.875015 
	C109.873688,73.306671 108.491211,74.155136 107.151024,74.092903 
	C102.897247,73.895401 99.303398,69.801743 99.103424,65.316193 
	C98.891953,60.572701 102.724869,56.030941 107.705154,55.140633 
	C113.381432,54.125896 117.726761,56.468906 120.946899,60.528709 
	C124.049904,58.345085 126.889038,56.347149 129.304077,54.647644 
	C124.604980,53.196022 119.848206,51.258099 114.902550,50.358089 
	C111.414749,49.723381 107.467094,49.797348 104.081360,50.781612 
	C95.896309,53.161079 91.747856,62.019939 94.480125,69.998947 
	C97.454094,78.683784 106.234924,82.333908 115.892929,79.653847 
z"/>
<path fill="#F3FAFC" opacity="1.000000" stroke="none" 
	d="
M115.996910,78.699448 
	C120.152328,83.575768 124.307755,88.452087 128.532730,93.410027 
	C124.365852,93.617104 120.383118,92.639671 118.482407,94.199409 
	C115.961571,96.268028 113.811844,100.294411 113.750694,103.522110 
	C113.643776,109.165428 114.964912,114.905533 116.224426,120.483871 
	C117.314568,125.312050 119.339630,129.922302 120.595459,134.722031 
	C121.618530,138.632187 125.375046,142.003281 129.542694,142.016724 
	C136.369675,142.038742 143.197021,141.993439 150.023636,142.048035 
	C151.553024,142.060257 153.080048,142.368027 155.237549,142.610443 
	C151.794281,145.619324 40.226448,145.907928 35.385769,142.927017 
	C38.673073,142.364609 41.104156,141.948685 43.125595,141.602844 
	C43.125595,129.317719 43.125595,117.194313 43.125595,104.036430 
	C39.857861,107.103691 37.847336,109.531670 35.314529,111.134148 
	C34.096191,111.904976 31.892359,111.118179 30.134798,111.036736 
	C30.953733,109.642052 31.702927,108.200363 32.605183,106.861847 
	C34.959068,103.369820 37.758545,100.118919 39.678848,96.408791 
	C42.107487,91.716530 43.277283,86.322105 45.997410,81.842194 
	C51.164558,73.332153 59.445221,69.218819 69.126503,67.832558 
	C76.342842,66.799255 83.781258,66.497292 90.130753,59.344074 
	C88.853050,68.075836 90.539276,74.409088 96.441658,78.967346 
	C101.029526,82.510445 106.245064,83.773041 112.449814,82.681503 
	C112.948555,83.392586 112.974434,83.696144 113.000153,83.999847 
	C113.000000,84.000000 112.999847,84.000305 112.818268,84.221970 
	C112.422119,84.970596 112.207558,85.497543 111.574127,85.999893 
	C104.411804,88.112175 98.209099,86.362259 91.734283,84.149834 
	C86.049026,82.207214 79.848244,80.884972 73.877975,80.895447 
	C66.816360,80.907845 61.764969,85.257668 59.568184,92.173279 
	C57.444195,98.859703 60.127300,104.219269 64.809395,108.833107 
	C70.076347,114.023270 77.327797,116.070091 84.073074,113.737717 
	C72.030907,111.319901 62.788906,106.741241 64.299637,92.993866 
	C64.871193,87.792755 69.127205,84.579887 74.135605,84.375221 
	C68.820816,91.395927 68.618599,91.953773 69.523804,96.952545 
	C81.639748,94.225807 92.839355,94.909088 101.987244,105.762451 
	C102.846588,103.733086 103.435593,101.883102 104.383858,100.240524 
	C105.219582,98.792908 106.456642,97.576981 107.713737,96.526123 
	C108.049667,96.966240 108.188339,97.138985 108.311020,97.693184 
	C106.586502,102.667717 104.877968,107.260796 103.169434,111.853867 
	C103.611206,112.001740 104.052971,112.149620 104.494736,112.297493 
	C109.357727,106.547058 110.781311,99.513565 111.871429,93.407127 
	C105.095894,93.844612 98.702644,95.040993 92.479965,94.447861 
	C85.700455,93.801666 79.175056,90.227600 71.611282,94.312599 
	C73.285103,88.435364 76.584511,85.922226 81.084984,86.125877 
	C85.318680,86.317459 89.565750,87.479141 93.684883,88.645187 
	C100.121689,90.467339 106.378120,91.744530 112.506638,86.900589 
	C113.845551,84.145561 114.857414,81.505257 115.901474,78.828720 
	C115.933670,78.792488 115.996910,78.699448 115.996910,78.699448 
M49.980541,110.989807 
	C49.980541,110.989807 50.117840,110.934227 49.951729,111.864365 
	C49.951729,118.205246 49.951729,124.546127 49.951729,131.157166 
	C53.343090,126.301315 53.799679,121.097977 52.644104,115.553986 
	C52.328358,114.039154 52.242382,112.476425 52.713715,111.092773 
	C56.475334,113.342590 60.236954,115.592407 64.218712,118.338753 
	C53.638103,129.243591 49.144520,136.549942 49.972378,142.294739 
	C56.531387,133.974182 59.430115,123.157768 70.714149,118.254990 
	C67.713715,117.297981 65.854485,116.704964 63.427425,115.719475 
	C51.630890,108.912071 47.262909,99.124680 51.531982,88.964836 
	C54.559166,81.760513 60.286774,77.873642 67.656593,76.131493 
	C75.028603,74.388840 81.954880,76.209366 89.298248,79.719406 
	C87.303833,75.922623 85.751015,72.966507 83.806206,69.264160 
	C83.161186,71.313927 82.795151,72.477135 82.425049,73.653252 
	C80.731133,73.305641 79.275940,72.954689 77.802811,72.713074 
	C66.830734,70.913521 57.469688,74.030304 50.962852,83.074280 
	C44.711376,91.763329 45.570908,100.866974 51.623688,109.560112 
	C51.889736,109.942215 51.925659,110.484535 51.524616,111.520775 
	C51.032513,111.342033 50.540409,111.163292 49.980541,110.989807 
M84.015266,125.725670 
	C84.015266,123.676323 84.015266,121.626968 84.015266,119.511063 
	C73.398712,120.543015 65.898506,125.300430 61.883015,133.079651 
	C60.227726,136.286438 62.107891,141.488495 65.639900,141.789597 
	C71.646660,142.301666 77.728706,141.930527 84.015289,141.930527 
	C84.015289,136.283920 84.015289,131.477524 84.015266,125.725670 
M72.004257,100.275818 
	C87.770172,103.620995 92.530914,113.912758 88.757195,130.199493 
	C95.264931,122.933189 93.904266,113.203239 86.813362,103.957344 
	C88.418259,104.467155 90.469147,105.001701 91.077583,106.243187 
	C93.005157,110.176262 95.841568,114.445999 95.640823,118.450935 
	C95.361809,124.017303 92.661797,129.465515 90.971786,134.956177 
	C90.414932,136.765335 89.776276,138.549316 89.175026,140.344818 
	C89.612343,140.464127 90.049660,140.583435 90.486977,140.702744 
	C94.916595,134.627029 98.166603,128.014420 98.680092,120.349792 
	C99.592690,106.727997 88.364403,96.191788 74.918221,98.038872 
	C73.667351,98.210709 72.547836,99.338791 72.004257,100.275818 
M99.612228,137.753159 
	C100.665482,138.765320 101.607727,139.945587 102.806610,140.737198 
	C103.791245,141.387314 105.259415,142.110199 106.179848,141.802704 
	C106.943382,141.547668 107.851936,139.654083 107.604538,138.804153 
	C106.532997,135.122971 105.060844,131.558380 103.734383,127.951385 
	C103.112106,128.079117 102.489830,128.206833 101.867554,128.334564 
	C100.966003,131.274307 100.064461,134.214035 99.612228,137.753159 
M109.194290,117.570747 
	C108.878235,116.878197 108.562187,116.185654 107.798935,114.513176 
	C106.299934,117.823410 105.206673,120.237663 103.724045,123.511742 
	C105.761559,122.685463 106.828293,122.252876 108.815109,121.447159 
	C110.679741,128.533081 112.421631,135.152557 114.163521,141.772034 
	C115.145279,139.974060 115.699402,138.120819 115.249702,136.556076 
	C113.481544,130.403809 111.397415,124.342354 109.194290,117.570747 
M80.293976,109.023102 
	C77.753922,106.937386 75.213860,104.851677 72.673798,102.765968 
	C72.193436,103.488640 71.713074,104.211311 71.232719,104.933990 
	C74.090981,106.405869 76.949242,107.877754 80.293976,109.023102 
z"/>
<path fill="#F2F9FC" opacity="1.000000" stroke="none" 
	d="
M116.385941,78.405441 
	C115.996910,78.699448 115.933670,78.792488 115.861427,78.835831 
	C115.789185,78.879173 115.730858,78.832726 115.730858,78.832726 
	C106.234924,82.333908 97.454094,78.683784 94.480125,69.998947 
	C91.747856,62.019939 95.896309,53.161079 104.081360,50.781612 
	C107.467094,49.797348 111.414749,49.723381 114.902550,50.358089 
	C119.848206,51.258099 124.604980,53.196022 129.304077,54.647644 
	C126.889038,56.347149 124.049904,58.345085 120.946899,60.528709 
	C117.726761,56.468906 113.381432,54.125896 107.705154,55.140633 
	C102.724869,56.030941 98.891953,60.572701 99.103424,65.316193 
	C99.303398,69.801743 102.897247,73.895401 107.151024,74.092903 
	C108.491211,74.155136 109.873688,73.306671 111.236801,72.875015 
	C111.126205,72.415390 111.015610,71.955772 110.905006,71.496147 
	C110.323723,71.323769 109.699295,70.917870 109.167984,71.016006 
	C104.980637,71.789482 102.682076,69.678375 102.092209,65.900459 
	C101.463387,61.873024 103.600418,59.180546 107.445557,58.024223 
	C112.902634,56.383156 116.707970,58.798523 120.742775,66.280815 
	C121.029030,66.164398 121.451942,66.130714 121.581345,65.918251 
	C128.343964,54.815311 137.490707,53.935581 146.095718,63.847404 
	C154.127167,73.098557 156.040222,84.313148 155.512756,96.120811 
	C155.342834,99.924973 154.806122,103.712753 154.305237,108.865593 
	C156.834763,107.926041 158.716568,107.146744 160.653503,106.544899 
	C161.496429,106.282974 162.452591,106.385452 163.357315,106.322433 
	C163.297241,107.371452 163.583755,109.120575 163.118393,109.350967 
	C160.834290,110.481773 158.350311,111.947929 155.936874,111.948067 
	C146.437851,111.948624 138.432251,103.697044 137.543503,93.567764 
	C137.381866,91.725586 137.164612,89.888275 136.860962,86.972572 
	C131.959320,96.637680 138.016068,107.234207 151.191193,114.288414 
	C148.674423,122.865837 141.277756,128.543243 133.382751,127.957504 
	C126.237846,127.427414 120.822678,121.860168 121.992516,115.562515 
	C122.426147,113.228127 124.408531,111.052513 126.081192,109.153877 
	C126.599304,108.565758 128.425079,109.129662 129.652161,109.166122 
	C129.219360,110.196976 129.079147,111.651184 128.304108,112.186874 
	C124.549217,114.782104 125.326729,118.242500 127.980728,120.069382 
	C130.505066,121.807007 134.423950,122.612320 137.496307,122.177734 
	C141.166641,121.658539 144.026810,118.901649 144.314575,114.210930 
	C139.979279,118.363716 135.948135,123.261978 128.517899,118.062851 
	C130.313171,117.550842 131.302521,117.104568 132.325729,117.004570 
	C137.430389,116.505684 139.385742,113.050186 137.459274,108.401749 
	C135.195648,102.939796 133.303452,97.325005 131.141846,91.819016 
	C130.487000,90.150963 129.695053,88.443703 128.579468,87.067688 
	C125.696510,83.511711 122.597992,80.130478 119.287285,76.337769 
	C118.820610,76.667236 117.797783,77.389336 116.385941,78.405441 
M142.960114,64.635002 
	C143.196869,64.566216 143.433609,64.497429 143.670364,64.428650 
	C143.487244,64.248581 143.304138,64.068504 142.801529,63.253857 
	C138.846283,60.407848 134.447235,60.571560 131.398788,63.791004 
	C129.177902,66.136452 127.586090,70.118347 127.647728,73.333618 
	C127.734230,77.845734 131.186554,80.678497 135.891159,81.307030 
	C141.216263,82.018448 143.198410,85.311707 143.113159,90.345268 
	C143.062378,93.343056 143.017044,96.350029 143.203430,99.338264 
	C143.277481,100.525536 143.984558,101.673317 144.403442,102.839081 
	C144.851212,102.720848 145.298981,102.602608 145.746750,102.484375 
	C145.746750,99.206627 145.767624,95.928726 145.742874,92.651169 
	C145.664261,82.239861 144.956497,81.560684 135.447144,77.791603 
	C133.388855,76.975784 131.037567,74.253937 130.812988,72.192986 
	C130.583618,70.087936 132.253693,66.769554 134.091965,65.698952 
	C136.417648,64.344490 139.753326,64.724258 142.960114,64.635002 
M138.943039,72.592514 
	C144.668533,72.618248 146.089569,77.265907 146.717804,81.226532 
	C147.749283,87.729347 147.557373,94.424026 147.930573,101.035027 
	C148.020538,102.628876 148.303482,104.211823 148.497681,105.799782 
	C149.191986,105.729706 149.886292,105.659637 150.580582,105.589569 
	C150.101669,96.924507 149.928940,88.225121 148.963654,79.614578 
	C148.660446,76.909805 146.608139,74.087051 144.641418,71.988327 
	C143.225708,70.477615 140.670349,69.922302 138.520905,69.287949 
	C137.957672,69.121735 137.012894,70.248314 136.243347,70.781181 
	C136.919037,71.468277 137.594742,72.155373 138.943039,72.592514 
M114.428741,67.404984 
	C114.648300,69.547440 114.867859,71.689896 115.123055,74.180107 
	C118.766525,71.725372 118.521011,68.233833 116.509819,65.730438 
	C114.947350,63.785576 111.749763,63.095917 109.180428,62.103325 
	C108.905205,61.997002 107.971214,63.595913 107.342827,64.403786 
	C108.143372,64.728119 108.932076,65.086563 109.747078,65.369194 
	C111.157501,65.858330 112.584213,66.300453 114.428741,67.404984 
z"/>
<path fill="#E8F5F9" opacity="1.000000" stroke="none" 
	d="
M115.811890,79.243286 
	C115.730858,78.832726 115.789185,78.879173 115.829231,78.872070 
	C114.857414,81.505257 113.845551,84.145561 112.456848,86.653473 
	C112.051010,86.355560 112.022003,86.190033 111.992996,86.024498 
	C112.207558,85.497543 112.422119,84.970596 112.841362,84.260086 
	C113.046043,84.076538 113.000305,83.999695 113.000305,83.999695 
	C112.974434,83.696144 112.948555,83.392586 112.883209,82.633751 
	C113.860130,81.336929 114.876534,80.495384 115.811890,79.243286 
z"/>
<path fill="#43ACD3" opacity="1.000000" stroke="none" 
	d="
M111.574127,85.999893 
	C112.022003,86.190033 112.051010,86.355560 112.129791,86.768204 
	C106.378120,91.744530 100.121689,90.467339 93.684883,88.645187 
	C89.565750,87.479141 85.318680,86.317459 81.084984,86.125877 
	C76.584511,85.922226 73.285103,88.435364 71.611282,94.312599 
	C79.175056,90.227600 85.700455,93.801666 92.479965,94.447861 
	C98.702644,95.040993 105.095894,93.844612 111.871429,93.407127 
	C110.781311,99.513565 109.357727,106.547058 104.494736,112.297493 
	C104.052971,112.149620 103.611206,112.001740 103.169434,111.853867 
	C104.877968,107.260796 106.586502,102.667717 108.444321,97.520393 
	C108.234566,96.730339 107.875526,96.494545 107.516479,96.258743 
	C106.456642,97.576981 105.219582,98.792908 104.383858,100.240524 
	C103.435593,101.883102 102.846588,103.733086 101.987244,105.762451 
	C92.839355,94.909088 81.639748,94.225807 69.523804,96.952545 
	C68.618599,91.953773 68.820816,91.395927 74.135605,84.375221 
	C69.127205,84.579887 64.871193,87.792755 64.299637,92.993866 
	C62.788906,106.741241 72.030907,111.319901 84.073074,113.737717 
	C77.327797,116.070091 70.076347,114.023270 64.809395,108.833107 
	C60.127300,104.219269 57.444195,98.859703 59.568184,92.173279 
	C61.764969,85.257668 66.816360,80.907845 73.877975,80.895447 
	C79.848244,80.884972 86.049026,82.207214 91.734283,84.149834 
	C98.209099,86.362259 104.411804,88.112175 111.574127,85.999893 
z"/>
<path fill="#34A6D0" opacity="1.000000" stroke="none" 
	d="
M84.015274,126.198395 
	C84.015289,131.477524 84.015289,136.283920 84.015289,141.930527 
	C77.728706,141.930527 71.646660,142.301666 65.639900,141.789597 
	C62.107891,141.488495 60.227726,136.286438 61.883015,133.079651 
	C65.898506,125.300430 73.398712,120.543015 84.015266,119.511063 
	C84.015266,121.626968 84.015266,123.676323 84.015274,126.198395 
z"/>
<path fill="#45ADD3" opacity="1.000000" stroke="none" 
	d="
M52.068775,110.952225 
	C51.925659,110.484535 51.889736,109.942215 51.623688,109.560112 
	C45.570908,100.866974 44.711376,91.763329 50.962852,83.074280 
	C57.469688,74.030304 66.830734,70.913521 77.802811,72.713074 
	C79.275940,72.954689 80.731133,73.305641 82.425049,73.653252 
	C82.795151,72.477135 83.161186,71.313927 83.806206,69.264160 
	C85.751015,72.966507 87.303833,75.922623 89.298248,79.719406 
	C81.954880,76.209366 75.028603,74.388840 67.656593,76.131493 
	C60.286774,77.873642 54.559166,81.760513 51.531982,88.964836 
	C47.262909,99.124680 51.630890,108.912071 63.711098,116.204094 
	C63.996037,117.073219 63.997307,117.457726 63.998573,117.842232 
	C60.236954,115.592407 56.475334,113.342590 52.364212,111.044098 
	C52.014706,110.995415 52.068775,110.952225 52.068775,110.952225 
z"/>
<path fill="#46AED4" opacity="1.000000" stroke="none" 
	d="
M71.685791,100.149338 
	C72.547836,99.338791 73.667351,98.210709 74.918221,98.038872 
	C88.364403,96.191788 99.592690,106.727997 98.680092,120.349792 
	C98.166603,128.014420 94.916595,134.627029 90.486977,140.702744 
	C90.049660,140.583435 89.612343,140.464127 89.175026,140.344818 
	C89.776276,138.549316 90.414932,136.765335 90.971786,134.956177 
	C92.661797,129.465515 95.361809,124.017303 95.640823,118.450935 
	C95.841568,114.445999 93.005157,110.176262 91.077583,106.243187 
	C90.469147,105.001701 88.418259,104.467155 86.813362,103.957344 
	C93.904266,113.203239 95.264931,122.933189 88.757195,130.199493 
	C92.530914,113.912758 87.770172,103.620995 71.685791,100.149338 
z"/>
<path fill="#4AAFD5" opacity="1.000000" stroke="none" 
	d="
M64.108643,118.090492 
	C63.997307,117.457726 63.996037,117.073219 63.995014,116.400330 
	C65.854485,116.704964 67.713715,117.297981 70.714149,118.254990 
	C59.430115,123.157768 56.531387,133.974182 49.972378,142.294739 
	C49.144520,136.549942 53.638103,129.243591 64.108643,118.090492 
z"/>
<path fill="#43ACD3" opacity="1.000000" stroke="none" 
	d="
M99.387573,137.453461 
	C100.064461,134.214035 100.966003,131.274307 101.867554,128.334564 
	C102.489830,128.206833 103.112106,128.079117 103.734383,127.951385 
	C105.060844,131.558380 106.532997,135.122971 107.604538,138.804153 
	C107.851936,139.654083 106.943382,141.547668 106.179848,141.802704 
	C105.259415,142.110199 103.791245,141.387314 102.806610,140.737198 
	C101.607727,139.945587 100.665482,138.765320 99.387573,137.453461 
z"/>
<path fill="#46AED4" opacity="1.000000" stroke="none" 
	d="
M109.312439,117.908966 
	C111.397415,124.342354 113.481544,130.403809 115.249702,136.556076 
	C115.699402,138.120819 115.145279,139.974060 114.163521,141.772034 
	C112.421631,135.152557 110.679741,128.533081 108.815109,121.447159 
	C106.828293,122.252876 105.761559,122.685463 103.724045,123.511742 
	C105.206673,120.237663 106.299934,117.823410 107.798935,114.513176 
	C108.562187,116.185654 108.878235,116.878197 109.312439,117.908966 
z"/>
<path fill="#5AB6D8" opacity="1.000000" stroke="none" 
	d="
M50.048302,110.984558 
	C50.540409,111.163292 51.032513,111.342033 51.796696,111.236496 
	C52.068775,110.952225 52.014706,110.995415 52.032833,110.965546 
	C52.242382,112.476425 52.328358,114.039154 52.644104,115.553986 
	C53.799679,121.097977 53.343090,126.301315 49.951729,131.157166 
	C49.951729,124.546127 49.951729,118.205246 50.018009,111.414230 
	C50.084290,110.964104 50.048302,110.984558 50.048302,110.984558 
z"/>
<path fill="#5AB6D8" opacity="1.000000" stroke="none" 
	d="
M80.050735,109.186371 
	C76.949242,107.877754 74.090981,106.405869 71.232719,104.933990 
	C71.713074,104.211311 72.193436,103.488640 72.673798,102.765968 
	C75.213860,104.851677 77.753922,106.937386 80.050735,109.186371 
z"/>
<path fill="#5AB6D8" opacity="1.000000" stroke="none" 
	d="
M50.101067,110.949165 
	C50.117840,110.934227 49.980541,110.989807 50.014420,110.987183 
	C50.048302,110.984558 50.084290,110.964104 50.101067,110.949165 
z"/>
<path fill="#4FB1D6" opacity="1.000000" stroke="none" 
	d="
M142.653397,64.356041 
	C139.753326,64.724258 136.417648,64.344490 134.091965,65.698952 
	C132.253693,66.769554 130.583618,70.087936 130.812988,72.192986 
	C131.037567,74.253937 133.388855,76.975784 135.447144,77.791603 
	C144.956497,81.560684 145.664261,82.239861 145.742874,92.651169 
	C145.767624,95.928726 145.746750,99.206627 145.746750,102.484375 
	C145.298981,102.602608 144.851212,102.720848 144.403442,102.839081 
	C143.984558,101.673317 143.277481,100.525536 143.203430,99.338264 
	C143.017044,96.350029 143.062378,93.343056 143.113159,90.345268 
	C143.198410,85.311707 141.216263,82.018448 135.891159,81.307030 
	C131.186554,80.678497 127.734230,77.845734 127.647728,73.333618 
	C127.586090,70.118347 129.177902,66.136452 131.398788,63.791004 
	C134.447235,60.571560 138.846283,60.407848 142.844116,63.687798 
	C142.886719,64.121742 142.653397,64.356041 142.653397,64.356041 
z"/>
<path fill="#46AED4" opacity="1.000000" stroke="none" 
	d="
M138.606735,72.717491 
	C137.594742,72.155373 136.919037,71.468277 136.243347,70.781181 
	C137.012894,70.248314 137.957672,69.121735 138.520905,69.287949 
	C140.670349,69.922302 143.225708,70.477615 144.641418,71.988327 
	C146.608139,74.087051 148.660446,76.909805 148.963654,79.614578 
	C149.928940,88.225121 150.101669,96.924507 150.580582,105.589569 
	C149.886292,105.659637 149.191986,105.729706 148.497681,105.799782 
	C148.303482,104.211823 148.020538,102.628876 147.930573,101.035027 
	C147.557373,94.424026 147.749283,87.729347 146.717804,81.226532 
	C146.089569,77.265907 144.668533,72.618248 138.606735,72.717491 
z"/>
<path fill="#4AAFD5" opacity="1.000000" stroke="none" 
	d="
M114.216415,67.083641 
	C112.584213,66.300453 111.157501,65.858330 109.747078,65.369194 
	C108.932076,65.086563 108.143372,64.728119 107.342827,64.403786 
	C107.971214,63.595913 108.905205,61.997002 109.180428,62.103325 
	C111.749763,63.095917 114.947350,63.785576 116.509819,65.730438 
	C118.521011,68.233833 118.766525,71.725372 115.123055,74.180107 
	C114.867859,71.689896 114.648300,69.547440 114.216415,67.083641 
z"/>
<path fill="#4FB1D6" opacity="1.000000" stroke="none" 
	d="
M143.003876,64.005081 
	C143.304138,64.068504 143.487244,64.248581 143.670364,64.428650 
	C143.433609,64.497429 143.196869,64.566216 142.806763,64.495522 
	C142.653397,64.356041 142.886719,64.121742 143.003876,64.005081 
z"/>
<path fill="#F3FAFC" opacity="1.000000" stroke="none" 
	d="
M113.000153,83.999847 
	C113.000305,83.999695 113.046043,84.076538 113.022949,84.038422 
	C112.999847,84.000305 113.000000,84.000000 113.000153,83.999847 
z"/>
<path fill="#F3FAFC" opacity="1.000000" stroke="none" 
	d="
M107.713737,96.526123 
	C107.875526,96.494545 108.234566,96.730339 108.460312,97.138931 
	C108.188339,97.138985 108.049667,96.966240 107.713737,96.526123 
z"/>
</svg>